{"title":"Tekken.2.A.Man.Called.X.2014.AVI.BRRip.720p.DivX.NLsub.{Th3Sp3ci","uid":11012597,"size":2088056514,"categoryP":"video","categoryS":"hd___movies","magnet":"?xt=urn:btih:d95b2a8ec496ff2eb3f8c5cceab66d9414cb2f6e&amp;dn=Tekken.2.A.Man.Called.X.2014.AVI.BRRip.720p.DivX.NLsub.%7BTh3Sp3ci&amp;tr=udp%3A%2F%2Ftracker.openbittorrent.com%3A80&amp;tr=udp%3A%2F%2Fopen.demonii.com%3A1337&amp;tr=udp%3A%2F%2Ftracker.coppersurfer.tk%3A6969&amp;tr=udp%3A%2F%2Fexodus.desync.com%3A6969","seeders":1,"leechers":1,"uploader":"HOLLANDmovies","files":-1,"time":1410390292,"description":"Tekken: A Man Called X 2015 (DivX 720p) \n\nINFO\n\nTekken: A Man Called X (2014)\n90 min - Action - 2015 (USA)\n\nSuffering from amnesia, a young man trying to discover his true identity is kidnapped by an underground crime organization and turned into a ruthless assassin.\n\nDirector: Wych Kaosayananda (as Wych Kaos)\nWriters: Nicole Jones-Dion, Steven Paul\nStars: Kane Kosugi, Cary-Hiroyuki Tagawa, Rade Serbedzija \n\nGENERAL:\n\nComplete name : Tekken.2.A.Man.Called.X.2014.AVI.BRRip.720p.DivX.NLsub.{Th3Sp3cialist}.avi\nFormat : AVI\nFormat/Info : Audio Video Interleave\nFormat profile : OpenDML\nFile size : 1.91 GiB\nDuration : 1h 28mn\nOverall bit rate : 3 077 Kbps\n\nVideo\nID : 0\nFormat : xvid\nCodec ID : xvid\nDuration : 1h 28mn\nBit rate : 2 744 Kbps\nWidth : 1 280 pixels\nHeight : 720 pixels\nDisplay aspect ratio : 16:9\nFrame rate : 24.000 fps\nBits/(Pixel*Frame) : 0.124\nStream size : 1.70 GiB (89%)\n\nAudio\nID : 1\nFormat : MPEG Audio\nFormat version : Version 1\nFormat profile : Layer 3\nMode : Joint stereo\nMode extension : MS Stereo\nCodec ID : 55\nCodec ID/Hint : MP3\nDuration : 1h 28mn\nBit rate mode : Constant\nBit rate : 320 Kbps\nChannel(s) : 2 channels\nSampling rate : 48.0 KHz\nCompression mode : Lossy\nStream size : 203 MiB (10%)\nAlignment : Aligned on interleaves\nInterleave, duration : 24 ms (0.58 video frame)\n &lt;a href=&quot;\nhttp://bayimg.com/aaaHgaAgF&quot; rel=&quot;nofollow&quot; target=&quot;_NEW&quot;&gt;\nhttp://bayimg.com/aaaHgaAgF&lt;/a&gt; &lt;a href=&quot;\nhttp://bayimg.com/aAahJaAGf&quot; rel=&quot;nofollow&quot; target=&quot;_NEW&quot;&gt;\nhttp://bayimg.com/aAahJaAGf&lt;/a&gt; &lt;a href=&quot;\nhttp://bayimg.com/aaAhkaAGF&quot; rel=&quot;nofollow&quot; target=&quot;_NEW&quot;&gt;\nhttp://bayimg.com/aaAhkaAGF&lt;/a&gt;","torrent":{"xt":"urn:btih:d95b2a8ec496ff2eb3f8c5cceab66d9414cb2f6e","amp;dn":"Tekken.2.A.Man.Called.X.2014.AVI.BRRip.720p.DivX.NLsub.%7BTh3Sp3ci","amp;tr":["udp%3A%2F%2Ftracker.openbittorrent.com%3A80","udp%3A%2F%2Fopen.demonii.com%3A1337","udp%3A%2F%2Ftracker.coppersurfer.tk%3A6969","udp%3A%2F%2Fexodus.desync.com%3A6969"],"infoHash":"d95b2a8ec496ff2eb3f8c5cceab66d9414cb2f6e","infoHashBuffer":{"type":"Buffer","data":[217,91,42,142,196,150,255,46,179,248,197,204,234,182,109,148,20,203,47,110]},"announce":[],"urlList":[]}}